<?xml version="1.0" encoding="iso-8859-1"?>
<!-- Generator: Adobe Illustrator 18.1.1, SVG Export Plug-In . SVG Version: 6.00 Build 0)  -->
<svg version="1.1" id="Capa_1" xmlns="http://www.w3.org/2000/svg" xmlns:xlink="http://www.w3.org/1999/xlink" x="0px" y="0px"
	 viewBox="0 0 325.555 325.555" style="enable-background:new 0 0 325.555 325.555;" xml:space="preserve">
<g>
	<g>
		<g>
			<path style="fill:#010002;" d="M319.281,70.066c0-36.523-33.358-65.312-37.171-68.478L280.163,0l-1.947,1.594
				c-3.813,3.16-37.171,31.949-37.171,68.467v3.084h3.922c-1.653,2.371-2.54,5.162-2.54,8.05c0,6.777,4.754,12.483,11.444,13.848
				v23.747c-20.609-41.462-86.927-71.6-89.826-72.894l-1.262-0.549l-1.256,0.56C158.628,47.2,92.309,77.333,71.711,118.8V95.075
				c6.489-1.436,11.128-7.141,11.128-13.87c0-2.883-0.897-5.684-2.545-8.05h4.237v-3.084c0-36.523-33.358-65.312-37.171-68.478
				L45.408,0l-1.969,1.594C41.932,2.845,6.274,32.776,6.274,70.061v3.084h3.622c-1.648,2.371-2.556,5.173-2.556,8.05
				c0,6.94,4.998,12.809,11.748,13.984V325.55h48.484V136.88h4.536v188.676h61.315l-0.011-112.219l-0.071-1.023l0.163-1.066
				c2.284-12.804,23.54-23.965,28.816-26.564c5.281,2.584,26.526,13.685,28.816,26.401l0.087,113.519l0.022,0.952h61.853V136.88
				h4.542v188.676h48.837V95.135c6.56-1.305,11.422-7.152,11.422-13.929c0-2.883-0.887-5.684-2.54-8.05h3.922
				C319.281,73.155,319.281,70.066,319.281,70.066z M12.529,66.998c1.67-28.604,26.363-52.982,32.879-58.927
				c6.511,5.95,31.193,30.328,32.868,58.927C78.276,66.998,12.529,66.998,12.529,66.998z M72.718,134.111
				c9.04-42.436,80.025-77.273,90.065-81.999c10.041,4.727,81.031,39.537,90.055,81.999H72.718z M247.284,66.998
				c1.67-28.604,26.374-52.982,32.879-58.927c6.505,5.95,31.193,30.328,32.879,58.927H247.284z"/>
		</g>
	</g>
</g>
<g>
</g>
<g>
</g>
<g>
</g>
<g>
</g>
<g>
</g>
<g>
</g>
<g>
</g>
<g>
</g>
<g>
</g>
<g>
</g>
<g>
</g>
<g>
</g>
<g>
</g>
<g>
</g>
<g>
</g>
</svg>
