<?xml version="1.0" encoding="utf-8"?>
<!-- Generator: Adobe Illustrator 16.0.0, SVG Export Plug-In . SVG Version: 6.00 Build 0)  -->
<!DOCTYPE svg PUBLIC "-//W3C//DTD SVG 1.1//EN" "http://www.w3.org/Graphics/SVG/1.1/DTD/svg11.dtd">
<svg version="1.1" id="Layer_1" xmlns="http://www.w3.org/2000/svg" xmlns:xlink="http://www.w3.org/1999/xlink" x="0px" y="0px"
	 width="600px" height="300px" viewBox="0 0 600 300" enable-background="new 0 0 600 300" xml:space="preserve">
<rect display="none" fill="#7A7A7A" width="500" height="500"/>
<g>
	<g>
		<path fill="#FFFFFF" d="M190,2.5c-4.418,0-8,3.777-8,8.438c0,0.518,0.398,0.938,0.889,0.938c0.491,0,0.889-0.42,0.889-0.938
			c0-3.619,2.791-6.562,6.222-6.562s6.223,2.944,6.223,6.562c0,0.518,0.397,0.938,0.889,0.938c0.49,0,0.889-0.42,0.889-0.938
			C198,6.277,194.418,2.5,190,2.5z M190.889,10.133V7.188c0-0.518-0.398-0.938-0.889-0.938s-0.889,0.419-0.889,0.938v2.945
			c-1.531,0.418-2.667,1.872-2.667,3.617c0,2.071,1.592,3.75,3.556,3.75c1.963,0,3.555-1.679,3.555-3.75
			C193.555,12.004,192.419,10.551,190.889,10.133z M190,15.625c-0.98,0-1.778-0.842-1.778-1.875c0-1.034,0.797-1.875,1.778-1.875
			c0.98,0,1.777,0.841,1.777,1.875C191.777,14.783,190.98,15.625,190,15.625z"/>
	</g>
</g>
<g>
	<g>
		<path fill="#FFFFFF" d="M210,2c-4.418,0-8,3.582-8,8s3.582,8,8,8s8-3.582,8-8S214.418,2,210,2z M210,16c-3.309,0-6-2.691-6-6
			s2.691-6,6-6s6,2.691,6,6S213.309,16,210,16z M212.01,10h-1.51c-0.276,0-0.5-0.225-0.5-0.5V7.99c0-0.547-0.443-0.99-0.99-0.99
			h-0.02C208.443,7,208,7.443,208,7.99v3.02c0,0.547,0.443,0.99,0.99,0.99H209h1h2.01c0.547,0,0.99-0.443,0.99-0.99v-0.02
			C213,10.443,212.557,10,212.01,10z"/>
	</g>
</g>
<path fill="#FFFFFF" d="M168,15c-0.312,0-0.611-0.146-0.801-0.4l-2.152-2.869l-1.215,1.824c-0.307,0.459-0.928,0.582-1.387,0.277
	c-0.459-0.307-0.584-0.928-0.277-1.387l2-3c0.18-0.271,0.48-0.436,0.805-0.445c0.326,0.004,0.633,0.139,0.826,0.4l2.029,2.705
	l2.277-4.553c0.154-0.311,0.459-0.518,0.805-0.549c0.348-0.035,0.682,0.117,0.889,0.396l2.029,2.705l2.277-4.554
	c0.246-0.493,0.846-0.692,1.342-0.446c0.494,0.246,0.693,0.848,0.447,1.342l-3.001,6c-0.155,0.309-0.459,0.518-0.804,0.548
	c-0.348,0.03-0.682-0.118-0.891-0.396l-2.029-2.705l-2.276,4.553c-0.155,0.309-0.458,0.518-0.804,0.549
	C168.059,14.998,168.029,15,168,15z"/>
<path fill="#FFFFFF" d="M157,18h-2l0,0h-10l0,0h-2c-0.553,0-1-0.447-1-1V3c0-0.553,0.447-1,1-1h1l0,0h11l0,0h2c0.553,0,1,0.447,1,1
	v14C158,17.553,157.553,18,157,18z M156,4h-2l0,0h-8l0,0h-2v12h2l0,0h8l0,0h2V4z M150,12h4v2h-4V12z M150,9h4v2h-4V9z M150,6h4v2h-4
	V6z M146,12h2v2h-2V12z M146,9h2v2h-2V9z M146,6h2v2h-2V6z"/>
<path fill="#FFFFFF" d="M137.164,8.86l-1.324-0.22c-0.153-0.657-0.414-1.271-0.762-1.826l0.737-1.033
	c0.281-0.396,0.237-0.934-0.105-1.276l-0.214-0.214c-0.343-0.343-0.883-0.387-1.276-0.105l-1.033,0.738
	c-0.555-0.35-1.169-0.609-1.827-0.763l-0.221-1.324C131.059,2.354,130.642,2,130.152,2h-0.305c-0.489,0-0.906,0.354-0.986,0.836
	L128.64,4.16c-0.657,0.153-1.271,0.413-1.826,0.763l-1.033-0.738c-0.394-0.281-0.934-0.237-1.276,0.105l-0.214,0.214
	c-0.343,0.343-0.388,0.882-0.105,1.276l0.737,1.033c-0.348,0.555-0.608,1.169-0.762,1.826l-1.324,0.221
	C122.354,8.941,122,9.358,122,9.847v0.306c0,0.489,0.354,0.906,0.836,0.986l1.324,0.222c0.153,0.657,0.414,1.271,0.762,1.826
	l-0.737,1.033c-0.282,0.396-0.237,0.934,0.105,1.276l0.214,0.214c0.343,0.342,0.883,0.387,1.276,0.105l1.033-0.738
	c0.555,0.349,1.169,0.609,1.826,0.762l0.222,1.325c0.08,0.482,0.497,0.836,0.986,0.836h0.305c0.489,0,0.906-0.354,0.986-0.836
	l0.221-1.325c0.658-0.152,1.272-0.413,1.827-0.762l1.033,0.738c0.394,0.281,0.934,0.236,1.276-0.105l0.214-0.214
	c0.343-0.343,0.387-0.883,0.105-1.276l-0.737-1.033c0.348-0.555,0.608-1.169,0.762-1.826l1.324-0.222
	c0.482-0.08,0.836-0.497,0.836-0.986V9.847C138,9.358,137.646,8.941,137.164,8.86z M130,13c-1.656,0-3-1.344-3-3
	c0-1.657,1.344-3,3-3s3,1.343,3,3C133,11.656,131.656,13,130,13z"/>
<g>
	<g>
		<path fill="#FFFFFF" d="M114,9h-2v2h2V9z M115,2h-2v2h2V2z M111,9h-2v2h2V9z M107,2h-2v2h2V2z M117,2h-1v3h-4V2h-4v3h-4V2h-1
			c-0.553,0-1,0.448-1,1v14c0,0.553,0.447,1,1,1h14c0.553,0,1-0.447,1-1V3C118,2.448,117.553,2,117,2z M116,16h-12V7h12V16z M111,12
			h-2v2h2V12z M108,12h-2v2h2V12z M108,9h-2v2h2V9z M114,12h-2v2h2V12z"/>
	</g>
</g>
<rect x="100" fill="none" width="20" height="20"/>
<rect x="120" fill="none" width="20" height="20"/>
<rect x="140" fill="none" width="20" height="20"/>
<rect x="160" fill="none" width="20" height="20"/>
<rect x="180" fill="none" width="20" height="20"/>
<rect x="200" fill="none" width="20" height="20"/>
<g>
	<g>
		<g>
			<path fill="#FFFFFF" d="M230,5.812c-2.312,0-4.188,1.875-4.188,4.188c0,1.168,0.48,2.223,1.252,2.982L230,10V5.812z"/>
			<path fill="#FFFFFF" d="M230,2c-4.418,0-8,3.582-8,8s3.582,8,8,8s8-3.582,8-8S234.418,2,230,2z M230,16c-3.309,0-6-2.691-6-6
				s2.691-6,6-6s6,2.691,6,6S233.309,16,230,16z"/>
		</g>
	</g>
</g>
<rect x="220" fill="none" width="20" height="20"/>
<rect x="100" y="80" fill="none" width="32" height="32"/>
<path fill="#FFFFFF" d="M75.839,16.029C53.993,2.035,21.33,0,6.497,0C4.366,0,2.663,0.039,1.353,0.094C0.499,0.132,0,0.526,0,1.366
	v37.573C0,39.592,0.36,40,1.082,40h67.071c0.601,0,1.084,0.038,1.367-0.759c0,0,6.797-21.226,6.916-21.608
	C76.688,16.826,76.526,16.466,75.839,16.029z M20.652,30.752c-1.333,2.808-4.666,4.097-9.812,3.984
	c-2.74-0.067-5.95-1.05-7.506-1.77l1.258-2.727c2.117,1.065,4.805,1.687,6.958,1.735c2.488,0.056,4.197-0.467,4.722-1.573
	c0.669-1.431-1.237-2.519-3.661-3.666C9.57,25.295,6.058,23.54,7.3,20.427c1.04-2.627,5.106-3.87,9.606-3.765
	c1.398,0.035,2.232,0.144,3.402,0.36l-0.813,2.562c-0.922-0.211-1.727-0.357-2.861-0.385c-2.244-0.05-4.722,0.485-5.198,1.901
	c-0.404,1.196,1.271,1.818,3.734,3.008C18.315,25.626,22.23,27.44,20.652,30.752z M69.833,20h-9.772l-1.413,4h8.195l-0.83,3h-8.199
	l-2.132,6.527c-0.818,0.439-4.104,1.298-7.751,1.298c-5.629,0-9.603-2.736-10.225-6.731c-0.006-0.056-0.059-0.102-0.125-0.102
	s-0.112,0.296-0.133,0.358L35.413,35h-4.122c-1.343-5-3.849-10.076-6.376-13.688c0,0-2.477,7.532-2.506,7.62
	c-0.021,0.06-0.051,0.007-0.122,0.007c-0.068,0-0.113-0.055-0.138-0.117c-0.376-1.104-0.832-1.854-2.276-2.916L22.744,17h3.838
	c3.134,4,5.697,8.655,6.94,12.275L37.436,17h3.58l-1.225,3.785c-0.019,0.064,0.029,0.054,0.106,0.054
	c0.046,0,0.128-0.01,0.203-0.091c2.439-2.627,6.207-4.126,10.542-4.126c1.396,0,2.823,0.077,3.999,0.255l-0.965,2.828
	c-0.95-0.122-2.01-0.183-3.036-0.183c-4.888,0-8.543,2.366-9.094,6.116c-0.229,1.576,0.143,2.986,1.077,4.081
	c1.248,1.454,3.449,2.104,6.199,2.104c1.274,0,2.496-0.067,3.485-0.317L56.961,17H70.68L69.833,20z"/>
<rect x="100" y="25" fill="#4C5E70" width="36" height="36"/>
<rect x="106" y="51" fill="#FFFFFF" width="24" height="4"/>
<rect x="106" y="41.5" fill="#FFFFFF" width="24" height="4"/>
<rect x="106" y="32" fill="#FFFFFF" width="24" height="4"/>
<line fill="none" stroke="#FFFFFF" stroke-width="3" stroke-miterlimit="10" x1="106" y1="96" x2="126" y2="96"/>
<line fill="none" stroke="#FFFFFF" stroke-width="3" stroke-miterlimit="10" x1="116" y1="106" x2="116" y2="86"/>
<rect x="132" y="80" fill="none" width="32" height="32"/>
<line fill="none" stroke="#FFFFFF" stroke-width="3" stroke-miterlimit="10" x1="138" y1="96" x2="158" y2="96"/>
<path fill="#FFFFFF" d="M156.25,155h-3.75v-1.25l-3.75-3.75H140v15h7.5v5H160v-11.25L156.25,155z M156.25,156.768l1.982,1.982
	h-1.982V156.768z M148.75,151.768l1.982,1.982h-1.982V151.768z M141.25,151.25h6.25V155h3.75v8.75h-10V151.25z M158.75,168.75h-10
	V165h3.75v-8.75h2.5V160h3.75V168.75z"/>
<path fill="#FFFFFF" d="M135.509,154.491c1.587,1.587,3.467,2.279,4.199,1.547s0.039-2.612-1.548-4.199l0,0
	c-1.586-1.586-3.466-2.279-4.198-1.547C133.229,151.024,133.922,152.904,135.509,154.491z M127.651,165.897l8.814-8.813
	c0.531,0.297,1.062,0.51,1.568,0.627l-9.284,9.284L120,170l3.004-8.75l9.285-9.285c0.046,0.202,0.107,0.409,0.184,0.619
	c0.115,0.312,0.266,0.631,0.443,0.949l-8.813,8.815l1.05,1.049l8.619-8.619c0.213,0.261,0.442,0.517,0.688,0.762
	c0.248,0.247,0.503,0.478,0.762,0.689l-8.618,8.619L127.651,165.897z"/>
<rect x="100" y="150" fill="none" width="20" height="20"/>
<rect x="120" y="150" fill="none" width="20" height="20"/>
<rect x="140" y="150" fill="none" width="20" height="20"/>
<rect x="160" y="150" fill="none" width="20" height="20"/>
<g>
	<path fill="#FFFFFF" d="M103.125,156.25v12.5c0,0.688,0.562,1.25,1.25,1.25h11.25c0.688,0,1.25-0.562,1.25-1.25v-12.5H103.125z
		 M106.875,167.5h-1.25v-8.75h1.25V167.5z M109.375,167.5h-1.25v-8.75h1.25V167.5z M111.875,167.5h-1.25v-8.75h1.25V167.5z
		 M114.375,167.5h-1.25v-8.75h1.25V167.5z"/>
	<path fill="#FFFFFF" d="M117.188,152.5h-4.062v-1.562c0-0.516-0.422-0.938-0.938-0.938h-4.375c-0.516,0-0.938,0.421-0.938,0.938
		v1.562h-4.062c-0.516,0-0.938,0.421-0.938,0.938V155h16.25v-1.562C118.125,152.922,117.703,152.5,117.188,152.5z M111.875,152.5
		h-3.75v-1.234h3.75V152.5z"/>
</g>
<path fill="#C6C6C6" d="M156.25,175h-3.75v-1.25l-3.75-3.75H140v15h7.5v5H160v-11.25L156.25,175z M156.25,176.768l1.982,1.982
	h-1.982V176.768z M148.75,171.768l1.982,1.982h-1.982V171.768z M141.25,171.25h6.25V175h3.75v8.75h-10V171.25z M158.75,188.75h-10
	V185h3.75v-8.75h2.5V180h3.75V188.75z"/>
<path fill="#C6C6C6" d="M135.509,174.491c1.587,1.587,3.467,2.279,4.199,1.547s0.039-2.612-1.548-4.199l0,0
	c-1.586-1.586-3.466-2.279-4.198-1.547C133.229,171.024,133.922,172.904,135.509,174.491z M127.651,185.897l8.814-8.813
	c0.531,0.297,1.062,0.51,1.568,0.627l-9.284,9.284L120,190l3.004-8.75l9.285-9.285c0.046,0.202,0.107,0.409,0.184,0.619
	c0.115,0.312,0.266,0.631,0.443,0.949l-8.813,8.815l1.05,1.049l8.619-8.619c0.213,0.261,0.442,0.517,0.688,0.762
	c0.248,0.247,0.503,0.478,0.762,0.689l-8.618,8.619L127.651,185.897z"/>
<rect x="100" y="170" fill="none" width="20" height="20"/>
<rect x="120" y="170" fill="none" width="20" height="20"/>
<rect x="140" y="170" fill="none" width="20" height="20"/>
<rect x="160" y="170" fill="none" width="20" height="20"/>
<rect x="180" y="150" fill="none" width="20" height="20"/>
<rect x="180" y="170" fill="none" width="20" height="20"/>
<rect x="200" y="150" fill="none" width="20" height="20"/>
<rect x="200" y="170" fill="none" width="20" height="20"/>
<rect x="220" y="150" fill="none" width="20" height="20"/>
<rect x="220" y="170" fill="none" width="20" height="20"/>
<rect x="240" y="150" fill="none" width="20" height="20"/>
<rect x="240" y="170" fill="none" width="20" height="20"/>
<rect x="260" y="150" fill="none" width="20" height="20"/>
<rect x="260" y="170" fill="none" width="20" height="20"/>
<rect x="280" y="150" fill="none" width="20" height="20"/>
<rect x="280" y="170" fill="none" width="20" height="20"/>
<rect x="300" y="150" fill="none" width="20" height="20"/>
<rect x="320" y="150" fill="none" width="20" height="20"/>
<rect x="340" y="150" fill="none" width="20" height="20"/>
<rect x="360" y="150" fill="none" width="20" height="20"/>
<rect x="380" y="150" fill="none" width="20" height="20"/>
<rect x="400" y="150" fill="none" width="20" height="20"/>
<rect x="420" y="150" fill="none" width="20" height="20"/>
<rect x="440" y="150" fill="none" width="20" height="20"/>
<rect x="460" y="150" fill="none" width="20" height="20"/>
<rect x="480" y="150" fill="none" width="20" height="20"/>
<rect x="500" y="150" fill="none" width="20" height="20"/>
<g>
	<path fill="#C6C6C6" d="M103.125,176.25v12.5c0,0.688,0.562,1.25,1.25,1.25h11.25c0.688,0,1.25-0.562,1.25-1.25v-12.5H103.125z
		 M106.875,187.5h-1.25v-8.75h1.25V187.5z M109.375,187.5h-1.25v-8.75h1.25V187.5z M111.875,187.5h-1.25v-8.75h1.25V187.5z
		 M114.375,187.5h-1.25v-8.75h1.25V187.5z"/>
	<path fill="#C6C6C6" d="M117.188,172.5h-4.062v-1.562c0-0.516-0.422-0.938-0.938-0.938h-4.375c-0.516,0-0.938,0.421-0.938,0.938
		v1.562h-4.062c-0.516,0-0.938,0.421-0.938,0.938V175h16.25v-1.562C118.125,172.922,117.703,172.5,117.188,172.5z M111.875,172.5
		h-3.75v-1.234h3.75V172.5z"/>
</g>
<path fill="#FFFFFF" d="M167.752,153.25c2.479,0,4.497,2.019,4.497,4.5c0,0.935-0.289,1.833-0.833,2.601l-0.443,0.623l-0.622,0.442
	c-0.766,0.546-1.665,0.834-2.599,0.834c-2.479,0-4.496-2.019-4.496-4.5S165.273,153.25,167.752,153.25 M167.752,151
	c-3.725,0-6.744,3.022-6.744,6.75s3.02,6.75,6.744,6.75c1.456,0,2.8-0.466,3.902-1.251l5.416,5.421c0.22,0.22,0.508,0.33,0.796,0.33
	c0.288,0,0.576-0.11,0.796-0.33c0.44-0.44,0.44-1.154,0-1.594l-5.416-5.421c0.784-1.104,1.25-2.449,1.25-3.905
	C174.497,154.022,171.477,151,167.752,151L167.752,151z"/>
<path fill="#C6C6C6" d="M167.752,173.25c2.479,0,4.497,2.019,4.497,4.5c0,0.935-0.289,1.833-0.833,2.601l-0.443,0.623l-0.622,0.442
	c-0.766,0.546-1.665,0.834-2.599,0.834c-2.479,0-4.496-2.019-4.496-4.5S165.273,173.25,167.752,173.25 M167.752,171
	c-3.725,0-6.744,3.022-6.744,6.75s3.02,6.75,6.744,6.75c1.456,0,2.8-0.466,3.902-1.251l5.416,5.421c0.22,0.22,0.508,0.33,0.796,0.33
	c0.288,0,0.576-0.11,0.796-0.33c0.44-0.44,0.44-1.154,0-1.594l-5.416-5.421c0.784-1.104,1.25-2.449,1.25-3.905
	C174.497,174.022,171.477,171,167.752,171L167.752,171z"/>
<path fill="#FFFFFF" d="M289.999,151c-3.09,0-5.595,2.505-5.595,5.595c0,5.595,5.595,12.309,5.595,12.309s5.596-6.714,5.596-12.309
	C295.595,153.505,293.09,151,289.999,151z M289.999,160.022c-1.893,0-3.427-1.534-3.427-3.427s1.534-3.427,3.427-3.427
	s3.428,1.535,3.428,3.427S291.892,160.022,289.999,160.022z M287.831,156.596c0,1.197,0.971,2.168,2.168,2.168
	s2.168-0.971,2.168-2.168s-0.971-2.168-2.168-2.168S287.831,155.398,287.831,156.596L287.831,156.596z"/>
<path fill="#FFFFFF" d="M197.035,154.625c1.863,1.059,1.918,2.192,1.918,2.984v0.12c0,0.18-0.157,0.329-0.347,0.329h-4.202
	c-0.191,0-0.347-0.149-0.347-0.329v-0.401c0-1-0.957-1.161-1.484-1.245c-0.528-0.085-1.841-0.167-2.57-0.167c0,0-0.001,0-0.002,0
	s-0.001,0-0.003,0c-0.729,0-2.042,0.083-2.569,0.167c-0.528,0.084-1.484,0.245-1.484,1.245v0.401c0,0.18-0.156,0.329-0.347,0.329
	h-4.202c-0.191,0-0.348-0.149-0.348-0.329v-0.12c0-0.792,0.055-1.925,1.918-2.984c2.215-1.261,5.383-1.387,7.031-1.387
	c0.001,0.001,0.002,0.002,0.003,0.002c0,0,0.001-0.001,0.002-0.002C191.651,153.238,194.82,153.365,197.035,154.625z M190,157.714
	c-0.992,0-3.058,0.075-4.107,1.348c-1.049,1.271-3.675,7.605-1.334,7.605c2.342,0,4.388,0,5.441,0c1.054,0,3.1,0,5.441,0
	c2.342,0-0.284-6.334-1.333-7.605C193.058,157.789,190.992,157.714,190,157.714z M190,164.429c-1.236,0-2.238-1.002-2.238-2.238
	s1.002-2.238,2.238-2.238c1.236,0,2.238,1.002,2.238,2.238S191.236,164.429,190,164.429z"/>
<path fill="#FFFFFF" d="M271.938,163.008c-0.387-0.062-0.396-1.125-0.396-1.125s1.136-1.125,1.384-2.636
	c0.666,0,1.078-1.608,0.411-2.174c0.028-0.595,0.856-4.674-3.337-4.674c-4.192,0-3.365,4.079-3.338,4.674
	c-0.665,0.566-0.254,2.174,0.412,2.174c0.247,1.512,1.384,2.637,1.384,2.637s-0.01,1.063-0.396,1.125
	c-1.246,0.198-5.896,2.249-5.896,4.498H270h7.834C277.834,165.257,273.184,163.206,271.938,163.008z"/>
<path fill="#FFFFFF" d="M248.112,163.589c0,1.003,0.234,1.953,0.649,2.798h-1.559h-6.714v-2.002
	c1.458-1.349,3.921-2.359,4.776-2.496c0.387-0.062,0.396-1.124,0.396-1.124s-1.136-1.124-1.383-2.637
	c-0.667,0-1.078-1.607-0.412-2.173c-0.027-0.595-0.856-4.674,3.337-4.674c4.192,0,3.365,4.079,3.336,4.674
	c0.666,0.566,0.255,2.173-0.411,2.173c-0.074,0.455-0.229,0.875-0.41,1.24c-0.357,0.402-0.665,0.849-0.911,1.333
	c-0.04,0.042-0.062,0.064-0.062,0.064s0,0.021,0.001,0.056C248.34,161.658,248.112,162.597,248.112,163.589z M254.477,158.554
	c-2.781,0-5.036,2.255-5.036,5.036c0,2.781,2.254,5.036,5.036,5.036s5.035-2.255,5.035-5.036
	C259.512,160.809,257.258,158.554,254.477,158.554z M257.273,164.149h-2.237v2.238h-1.119v-2.238h-2.239v-1.119h2.239v-2.238h1.119
	v2.238h2.237V164.149z"/>
<path fill="#FFFFFF" d="M238.25,152.119c-5.848,4.426-11.458,10.348-11.458,10.348l-4.042-3.634l-1.689,1.721
	c1.662,1.562,5.511,5.686,6.813,7.232c3.665-6.123,7.475-10.689,11.092-14.865L238.25,152.119z"/>
<path fill="#FFFFFF" d="M218.697,151.089c-0.093-0.06-0.2-0.089-0.305-0.089c-0.108,0-0.216,0.03-0.31,0.094l-16.786,11.191
	c-0.173,0.115-0.268,0.317-0.246,0.523c0.021,0.207,0.156,0.386,0.349,0.462l4.378,1.751l2.058,3.603
	c0.099,0.173,0.281,0.28,0.479,0.282c0.002,0,0.004,0,0.006,0c0.196,0,0.379-0.104,0.479-0.271l1.162-1.938l5.424,2.169
	c0.067,0.027,0.136,0.04,0.208,0.04c0.095,0,0.189-0.024,0.274-0.072c0.148-0.083,0.25-0.228,0.278-0.396l2.798-16.786
	C218.981,151.431,218.884,151.211,218.697,151.089z M202.802,162.625l12.966-8.645l-9.427,10.093
	c-0.049-0.03-0.093-0.069-0.149-0.091L202.802,162.625z M206.749,164.466c-0.001-0.002-0.003-0.003-0.004-0.005l10.599-11.344
	l-9.036,14.078L206.749,164.466z M215.157,167.567l-4.778-1.912c-0.114-0.044-0.231-0.06-0.349-0.066l7.359-11.408L215.157,167.567z
	"/>
<path fill="#FFFFFF" d="M350,151.445l-9.776,9.776h2.444L350,153.89l7.333,7.332h2.443L350,151.445z M343.89,162.444v6.11h4.889
	v-4.888h2.443v4.888h4.889v-6.11l-6.11-6.11L343.89,162.444z"/>
<path fill="#FFFFFF" d="M312.159,158.613h-3.69v6.152h-3.076l4.921,4.921l4.922-4.921h-3.076V158.613z M313.39,150h-11.073v7.382
	l0.615,12.304l0.615-12.304v-6.152h9.843v3.691h3.691v2.461l0.615,12.304l0.615-12.304v-2.461L313.39,150z"/>
<path fill="#FFFFFF" d="M328.155,169.686h3.69v-6.152h3.076l-4.921-4.921l-4.922,4.921h3.076V169.686z M333.076,150h-11.073v7.382
	l0.615,12.304l0.615-12.304v-6.152h9.843v3.691h3.691v2.461l0.615,12.304l0.615-12.304v-2.461L333.076,150z"/>
<path fill="#FFFFFF" d="M374.731,158.988v2.293h-5.732V154.4h2.293v4.588H374.731z M370.146,150.96
	c-5.066,0-9.175,4.107-9.175,9.175c0,5.067,4.108,9.175,9.175,9.175c5.067,0,9.175-4.108,9.175-9.175
	C379.32,155.067,375.213,150.96,370.146,150.96z M370.146,167.015c-3.8,0-6.882-3.08-6.882-6.88s3.082-6.882,6.882-6.882
	c3.801,0,6.881,3.082,6.881,6.882S373.946,167.015,370.146,167.015z"/>
<path fill="#FFFFFF" d="M396.71,153.271h-1.193v2.387h-3.581v-2.387h-3.58v2.387h-3.582v-2.387h-1.192
	c-0.658,0-1.195,0.537-1.195,1.193v13.131c0,0.656,0.537,1.193,1.195,1.193h13.129c0.657,0,1.195-0.538,1.195-1.193v-13.131
	C397.905,153.809,397.367,153.271,396.71,153.271z M385.968,167.596h-2.386c-0.001,0-0.001-0.001-0.001-0.003v-2.385h2.387V167.596z
	 M385.968,164.015h-2.387v-2.388h2.387V164.015z M385.968,160.433h-2.387v-2.387h2.387V160.433z M389.548,167.596h-2.388v-2.388
	h2.388V167.596z M389.548,164.015h-2.388v-2.388h2.388V164.015z M389.548,160.433h-2.388v-2.387h2.388V160.433z M393.129,167.596
	h-2.387v-2.388h2.387V167.596z M393.129,164.015h-2.387v-2.388h2.387V164.015z M393.129,160.433h-2.387v-2.387h2.387V160.433z
	 M396.71,167.593c-0.001,0-0.001,0.002-0.002,0.003h-2.385v-2.388h2.387V167.593z M396.71,164.015h-2.387v-2.388h2.387V164.015z
	 M396.71,160.433h-2.387v-2.387h2.387V160.433z M387.16,152.077c0-0.329-0.267-0.597-0.597-0.597c-0.329,0-0.596,0.269-0.596,0.597
	v2.388h1.192V152.077z M394.323,152.077c0-0.329-0.268-0.597-0.597-0.597c-0.331,0-0.598,0.269-0.598,0.597v2.388h1.194V152.077z"/>
<path fill="#FFFFFF" d="M417.731,161.902c-0.966-1.674-0.385-3.819,1.297-4.793l-1.809-3.134c-0.518,0.303-1.119,0.477-1.761,0.477
	c-1.934,0-3.5-1.578-3.5-3.525l-3.619,0c0.004,0.601-0.146,1.211-0.468,1.767c-0.966,1.673-3.113,2.243-4.798,1.273l-1.811,3.134
	c0.52,0.296,0.972,0.73,1.292,1.286c0.964,1.67,0.388,3.81-1.29,4.787l1.81,3.135c0.516-0.3,1.114-0.472,1.752-0.472
	c1.929,0,3.492,1.568,3.501,3.506h3.62c-0.001-0.595,0.149-1.197,0.467-1.749c0.964-1.67,3.106-2.241,4.79-1.276l1.811-3.135
	C418.499,162.887,418.05,162.455,417.731,161.902z M410.146,163.864c-2.06,0-3.729-1.669-3.729-3.729
	c0-2.059,1.669-3.728,3.729-3.728c2.059,0,3.728,1.669,3.728,3.728C413.874,162.194,412.205,163.864,410.146,163.864z"/>
<path fill="#FFFFFF" d="M423.136,166.864h16.017v2.288h-18.305v-18.305h2.288V166.864z M425.996,165.72
	c-0.948,0-1.716-0.768-1.716-1.716c0-0.948,0.768-1.716,1.716-1.716c0.05,0,0.101,0.003,0.149,0.007l1.845-3.075
	c-0.176-0.269-0.278-0.591-0.278-0.937c0-0.948,0.768-1.716,1.716-1.716s1.716,0.768,1.716,1.716c0,0.345-0.102,0.667-0.278,0.937
	l1.845,3.075c0.05-0.004,0.1-0.007,0.15-0.007c0.038,0,0.075,0.001,0.113,0.004l3.045-5.329c-0.188-0.276-0.299-0.609-0.299-0.968
	c0-0.948,0.769-1.716,1.717-1.716s1.716,0.768,1.716,1.716c0,0.948-0.768,1.716-1.716,1.716c-0.039,0-0.076-0.001-0.113-0.004
	l-3.045,5.329c0.188,0.276,0.298,0.609,0.298,0.968c0,0.948-0.768,1.716-1.716,1.716s-1.717-0.768-1.717-1.716
	c0-0.345,0.103-0.667,0.279-0.937l-1.845-3.074c-0.05,0.004-0.1,0.007-0.15,0.007c-0.05,0-0.101-0.003-0.149-0.007l-1.845,3.075
	c0.176,0.269,0.278,0.591,0.278,0.937C427.712,164.952,426.944,165.72,425.996,165.72z"/>
<path fill="#FFFFFF" d="M475.505,158.262h-0.29v-3.478c0-1.917-1.561-3.478-3.478-3.478h-2.318c-1.917,0-3.478,1.56-3.478,3.478
	v3.478h-0.29c-0.479,0-0.869,0.391-0.869,0.869v8.694c0,0.478,0.391,0.869,0.869,0.869h9.854c0.479,0,0.87-0.391,0.87-0.869v-8.694
	C476.375,158.652,475.983,158.262,475.505,158.262z M471.737,166.375h-2.318l0.505-2.521c-0.306-0.209-0.505-0.559-0.505-0.957
	c0-0.64,0.519-1.159,1.158-1.159c0.642,0,1.16,0.519,1.16,1.159c0,0.397-0.199,0.748-0.505,0.957L471.737,166.375z M472.896,158.262
	h-4.637v-3.478c0-0.64,0.521-1.159,1.159-1.159h2.318c0.64,0,1.159,0.519,1.159,1.159V158.262z"/>
<path fill="#FFFFFF" d="M455.043,151.306h-2.318c-1.917,0-3.478,1.56-3.478,3.478v3.478h-7.246c-0.479,0-0.869,0.391-0.869,0.869
	v8.694c0,0.478,0.391,0.869,0.869,0.869h9.853c0.479,0,0.871-0.391,0.871-0.869v-8.694c0-0.479-0.392-0.869-0.871-0.869h-0.288
	v-3.478c0-0.64,0.519-1.159,1.159-1.159h2.318c0.638,0,1.159,0.519,1.159,1.159v3.478h2.317v-3.478
	C458.52,152.866,456.959,151.306,455.043,151.306z M448.087,166.375h-2.317l0.503-2.521c-0.304-0.209-0.503-0.559-0.503-0.957
	c0-0.64,0.518-1.159,1.158-1.159s1.159,0.519,1.159,1.159c0,0.397-0.2,0.748-0.504,0.957L448.087,166.375z"/>
<path fill="#FFFFFF" d="M489.999,151.052c-5.017,0-9.083,4.066-9.083,9.083c0,5.017,4.066,9.083,9.083,9.083
	s9.084-4.066,9.084-9.083C499.083,155.118,495.016,151.052,489.999,151.052z M491.135,165.812h-2.271v-2.271h2.271V165.812z
	 M494.541,160.135l-3.406,2.271h-2.271v-1.135l3.406-2.271v-1.135h-5.678v-2.271h6.812c0.628,0,1.136,0.508,1.136,1.136V160.135z"/>
<path fill="#FFFFFF" d="M519.5,157.76h-7.125l2.663-2.663c-1.346-1.346-3.135-2.087-5.038-2.087s-3.692,0.741-5.038,2.087
	s-2.087,3.135-2.087,5.038s0.741,3.692,2.087,5.038s3.135,2.087,5.038,2.087s3.692-0.741,5.038-2.087
	c0.112-0.112,0.221-0.229,0.324-0.346l1.787,1.564c-1.741,1.988-4.299,3.244-7.149,3.244c-5.247,0-9.5-4.253-9.5-9.5
	s4.253-9.5,9.5-9.5c2.623,0,4.998,1.063,6.718,2.783l2.782-2.783V157.76z"/>
</svg>
